<mxfile host="Electron" agent="Mozilla/5.0 (Windows NT 10.0; Win64; x64) AppleWebKit/537.36 (KHTML, like Gecko) draw.io/25.0.1 Chrome/128.0.6613.186 Electron/32.2.6 Safari/537.36" version="25.0.1">
  <diagram name="Page-1" id="oCyF2l_0BiOo6Z5knDsw">
    <mxGraphModel dx="1219" dy="826" grid="1" gridSize="10" guides="1" tooltips="1" connect="1" arrows="1" fold="1" page="1" pageScale="1" pageWidth="850" pageHeight="1100" math="0" shadow="0">
      <root>
        <mxCell id="0" />
        <mxCell id="1" parent="0" />
        <mxCell id="q76zrVWfhr_DB77kWTOP-12" style="edgeStyle=orthogonalEdgeStyle;rounded=0;orthogonalLoop=1;jettySize=auto;html=1;entryX=1;entryY=0.5;entryDx=0;entryDy=0;endArrow=oval;endFill=1;startArrow=oval;startFill=1;strokeWidth=5;endSize=10;startSize=10;strokeColor=#008751;exitX=0;exitY=0.5;exitDx=0;exitDy=0;" edge="1" parent="1" source="q76zrVWfhr_DB77kWTOP-11" target="q76zrVWfhr_DB77kWTOP-10">
          <mxGeometry relative="1" as="geometry">
            <mxPoint x="350" y="630" as="sourcePoint" />
            <mxPoint x="410" y="410" as="targetPoint" />
          </mxGeometry>
        </mxCell>
        <mxCell id="q76zrVWfhr_DB77kWTOP-10" value="" style="rounded=1;whiteSpace=wrap;html=1;strokeWidth=4;fillColor=#1D2B53;strokeColor=#008751;" vertex="1" parent="1">
          <mxGeometry x="90" y="510" width="240" height="240" as="geometry" />
        </mxCell>
        <mxCell id="q76zrVWfhr_DB77kWTOP-9" style="edgeStyle=orthogonalEdgeStyle;rounded=0;orthogonalLoop=1;jettySize=auto;html=1;entryX=1;entryY=0.5;entryDx=0;entryDy=0;endArrow=oval;endFill=1;startArrow=oval;startFill=1;strokeWidth=5;endSize=10;startSize=10;strokeColor=#7E2553;exitX=0;exitY=0.5;exitDx=0;exitDy=0;" edge="1" parent="1" source="q76zrVWfhr_DB77kWTOP-7" target="q76zrVWfhr_DB77kWTOP-8">
          <mxGeometry relative="1" as="geometry">
            <mxPoint x="420" y="190" as="sourcePoint" />
            <mxPoint x="385" y="190" as="targetPoint" />
          </mxGeometry>
        </mxCell>
        <mxCell id="q76zrVWfhr_DB77kWTOP-7" value="" style="rounded=1;whiteSpace=wrap;html=1;strokeWidth=4;fillColor=#1D2B53;strokeColor=#7E2553;" vertex="1" parent="1">
          <mxGeometry x="510" y="290" width="240" height="240" as="geometry" />
        </mxCell>
        <mxCell id="q76zrVWfhr_DB77kWTOP-6" style="edgeStyle=orthogonalEdgeStyle;rounded=0;orthogonalLoop=1;jettySize=auto;html=1;entryX=1;entryY=0.5;entryDx=0;entryDy=0;endArrow=oval;endFill=1;startArrow=oval;startFill=1;strokeWidth=5;endSize=10;startSize=10;strokeColor=#FFEC27;" edge="1" parent="1" source="q76zrVWfhr_DB77kWTOP-5" target="q76zrVWfhr_DB77kWTOP-4">
          <mxGeometry relative="1" as="geometry" />
        </mxCell>
        <mxCell id="q76zrVWfhr_DB77kWTOP-4" value="" style="rounded=1;whiteSpace=wrap;html=1;strokeWidth=4;fillColor=#1D2B53;strokeColor=#FFEC27;" vertex="1" parent="1">
          <mxGeometry x="90" y="50" width="240" height="240" as="geometry" />
        </mxCell>
        <mxCell id="q76zrVWfhr_DB77kWTOP-3" value="" style="shape=image;verticalLabelPosition=bottom;labelBackgroundColor=default;verticalAlign=top;aspect=fixed;imageAspect=0;image=data:image/png,iVBORw0KGgoAAAANSUhEUgAAAdEAAAHgCAYAAAD65VeTAAAACXBIWXMAABJ0AAASdAHeZh94AAAE7mlUWHRYTUw6Y29tLmFkb2JlLnhtcAAAAAAAPD94cGFja2V0IGJlZ2luPSLvu78iIGlkPSJXNU0wTXBDZWhpSHpyZVN6TlRjemtjOWQiPz4gPHg6eG1wbWV0YSB4bWxuczp4PSJhZG9iZTpuczptZXRhLyIgeDp4bXB0az0iQWRvYmUgWE1QIENvcmUgOS4xLWMwMDIgNzkuYTFjZDEyZiwgMjAyNC8xMS8xMS0xOTowODo0NiAgICAgICAgIj4gPHJkZjpSREYgeG1sbnM6cmRmPSJodHRwOi8vd3d3LnczLm9yZy8xOTk5LzAyLzIyLXJkZi1zeW50YXgtbnMjIj4gPHJkZjpEZXNjcmlwdGlvbiByZGY6YWJvdXQ9IiIgeG1sbnM6eG1wPSJodHRwOi8vbnMuYWRvYmUuY29tL3hhcC8xLjAvIiB4bWxuczpkYz0iaHR0cDovL3B1cmwub3JnL2RjL2VsZW1lbnRzLzEuMS8iIHhtbG5zOnBob3Rvc2hvcD0iaHR0cDovL25zLmFkb2JlLmNvbS9waG90b3Nob3AvMS4wLyIgeG1sbnM6eG1wTU09Imh0dHA6Ly9ucy5hZG9iZS5jb20veGFwLzEuMC9tbS8iIHhtbG5zOnN0RXZ0PSJodHRwOi8vbnMuYWRvYmUuY29tL3hhcC8xLjAvc1R5cGUvUmVzb3VyY2VFdmVudCMiIHhtcDpDcmVhdG9yVG9vbD0iQWRvYmUgUGhvdG9zaG9wIDI2LjIgKFdpbmRvd3MpIiB4bXA6Q3JlYXRlRGF0ZT0iMjAyNC0xMi0xOVQxNjoyNzoyNi0wNzowMCIgeG1wOk1vZGlmeURhdGU9IjIwMjQtMTItMTlUMTY6Mzc6MzItMDc6MDAiIHhtcDpNZXRhZGF0YURhdGU9IjIwMjQtMTItMTlUMTY6Mzc6MzItMDc6MDAiIGRjOmZvcm1hdD0iaW1hZ2UvcG5nIiBwaG90b3Nob3A6Q29sb3JNb2RlPSIzIiB4bXBNTTpJbnN0YW5jZUlEPSJ4bXAuaWlkOmE1OTRjYTNmLTljNzAtNWU0OC1iMGQzLTVkMzJiMzRhN2M2NiIgeG1wTU06RG9jdW1lbnRJRD0ieG1wLmRpZDphNTk0Y2EzZi05YzcwLTVlNDgtYjBkMy01ZDMyYjM0YTdjNjYiIHhtcE1NOk9yaWdpbmFsRG9jdW1lbnRJRD0ieG1wLmRpZDphNTk0Y2EzZi05YzcwLTVlNDgtYjBkMy01ZDMyYjM0YTdjNjYiPiA8eG1wTU06SGlzdG9yeT4gPHJkZjpTZXE+IDxyZGY6bGkgc3RFdnQ6YWN0aW9uPSJjcmVhdGVkIiBzdEV2dDppbnN0YW5jZUlEPSJ4bXAuaWlkOmE1OTRjYTNmLTljNzAtNWU0OC1iMGQzLTVkMzJiMzRhN2M2NiIgc3RFdnQ6d2hlbj0iMjAyNC0xMi0xOVQxNjoyNzoyNi0wNzowMCIgc3RFdnQ6c29mdHdhcmVBZ2VudD0iQWRvYmUgUGhvdG9zaG9wIDI2LjIgKFdpbmRvd3MpIi8+IDwvcmRmOlNlcT4gPC94bXBNTTpIaXN0b3J5PiA8L3JkZjpEZXNjcmlwdGlvbj4gPC9yZGY6UkRGPiA8L3g6eG1wbWV0YT4gPD94cGFja2V0IGVuZD0iciI/PmepazwAAArOSURBVHja7dhfbN5VHcfx7wPd6Npua/e3uIxahhkZMmMyxKA34AUS+XNhDChZ9IIZkKBEEzVGjXdmmCUQQE1AZ+TOP1EZEGHjDjBGhzFzuil23YS1Xbe2g3bd2jU/f+XOf8lK23Pmc16v5JNdP6fPOe88u6SqqrDF3fWb6n+eMjO78O376uzz4f282HdJAADviIgCgIgCgIgCgIgCgIgCACIKACIKACIKACIKACIKAIgoAIgoAIgoAIgoAIgoACCiACCiACCiACCiAICIAoCIAoCIAoCIAoCIAgAiCgAiCgAiCgAi+v9l4+rG1M67GlXq3X9bS8TmteXsik43i4XXtqSoe3TVtpWR473acWOj8mUT0f/q8s5Y8pVbI1Jv+0fqiF65qpxtWOFmsfBalxR1j3quXRE53qs7P+irJqIAIKIAIKIAIKIAgIgCgIgCgIgCgIgCgIgCACIKACIKACIKACIKACIKAIgoAIgoAIgoAIgoACCiACCiACCiACCiACCiAICIAoCIAoCIAoCIAoCIAgAXbUQ3rm5MPfTJRpV6D9zeErF5bfqt64g4PFzOTkzkOWdr7q1pK+senTqT5Zzfs21l5Hifd9zYqET0AnWvjCVf/lhE6m2/qY7olavSb3V7RN9IOZu9/DnO2Zp7XcvKukdjk1nOuefaFZHjff7EB/wSBQD/nQsAiCgAiCgAiCgAiCgAiCgAIKIAIKIAIKIAIKIAgIgCgIgCgIgCgIgCgIgCACIKACIKACIKACIKACIKAIgoAIgoAIgoAIgoACCiACCiACCiACCilG5yOuLQsDXr/tEWcel96dfx+Ygt30y/nu3uNCJKQufORxwZsWbdQGv9ctyVfu11zK76XPptuMOdRkQBQEQBQEQBQEQBQEQBABEFABEFABEFABEFAEQUAEQUAEQUAEQUAEQUABBRABBRABBRABBRABBRAEBEAUBEAUBEAUBEAQARBQARBQARBQARBQARBQD+M6K7PtWodt2ddg9+1MHDvLX1RFzzrfTr/UxZ59zem+ec3/3poo558+URqVs0u8/e1KjmFdEv3hLxpcS7+wbvH8zbsvrV2XRv+r3rjsLOeUOmc761qGPuWZO+RbP7+HXz/CXqJQIAEQUAEQUAEQUAEQUARBQARBQARBQARBQARBQAEFEAEFEAEFEAEFEAEFEAQEQBQEQBQEQBQEQBABEFABEFABEFABEFABEFAEQUAEQUAEQUAEQUAEQ0qdaWiKvXpV/38oi/nEi/o6O+acDcTEznea9OTeR5nzd2iugFu6yOaG9X+q1ui+gfTb/jb3oQgLk5O53nvRo7m+d97u4QUQAoiYgCgIgCgIgCgIgCgIgCACIKACIKACIKACIKACIKAIgoAIgoAIgoAIgoAIgoACCiACCiACCiACCiAICIAoCIAoCIAoCIAoCIAgAiCgAiCgAiCgAiCgAiCgCIKACIKACIKACIKAAgogAgogAgogAgogAgogCAiAKAiAKAiAKAiAKAiAIAIgoAIgoAIgoAIgoAiCgAiCgAiCgAiCgAiCgAIKIAIKIAIKIAIKIAIKIAgIhCk5voj/jTN9LvyA8KO+e+TOe823dcRIFFc3Ywou+J9Dv+TFnnPHk8zzkPPOc7LqIAIKIAgIgCgIgCgIgCgIgCgIgCACIKACIKACIKACIKACIKAIgoAIgoAIgoAIgoACCiACCiACCiACCiACCiAICIAoCIAoCIAoCIAoCIAgAiCgAiCgAi+m8mpyP+fCL9Bt6K2LIu/Xq7fNNoHhP9EQe+Xs6O/DDPObcvzfNerWnP8z4fGxPRCzY1E3F0NP1GzkT0dKVf9woPL83j7EAdlifL2cBzec65tSXPe7WyNc/7PDQuogBQEhEFABEFABEFABEFABEFAEQUAEQUAEQUAEQUAEQUABBRABBRABBRABBRABBRAEBEAUBEAUBEAUBEAQARBQARBQARBQARBQARBQBEFABEFABEFACaIaIP/Dgi9R56trBTXtYSsWV9Oetd5Wax8NqWlnWPerqK+vMeOp6+RbP77r55RvSxvVXj0RfS7qe/LezyX1ZHtKeznHV3ePBZeK2F3aP1Zd2jY6ciUrdodr/aXzXmFVE3EwBEFABEFABEFABEFAAQUQAQUQAQUQAQUQAQUQBARAFARAFARAFARAFARAEAEQUAEQUAEQUAEQUARBQARBQARBQARBQARBQAEFEAEFEAEFEAEFEAEFEW0eR0xMGhcjY4HrFlvdnCbm17Wffo6Ki3U0R527mZiGNj5Wx0MqKn02xh19la1j0aGvd2iigAiCgAIKIAIKIAIKIAIKIAIKIAgIgCgIgCgIgCgIgCgIgCACIKACIKACIKACIKAIgoAIgoAIgoAIgoAIgoACCiACCiACCiACCiACCiAICIAoCIAoCI/qujp+LA/T+KSL2dP5uOODiUfoNvRVyzvpz1drlZLLy2pWXdozXtWd6rQ78ZjRzv82N7RfSCnThdbX18X9VIvZ+/NBNxbCz9Rs9EXNFZzrqXe/BZeK0tZd2jla1Z3qvXD41Hjvf56VerhogCgP/OBQBEFABEFABEFABEFABEFAAQUQAQUQAQUQAQUQBARAFARAFARAFARAFARAEAEQUAEQUAEQUAEQUAEQUARBQARBQARBQARBQAEFEAEFEAEFEAENGLVP/JOHDf7ojU2/mT6YiDQ+nXN1LWt3lsVcQLt6Xf7z6U5/OOZvq8v7+hrO/VxFSW+3voldHI8V498rwwiuj/cOJ0tfV7L1aN1PvFKzMRx8bSb2i8sMeuI+KP29Lvb1dn+rzL83ze1zaX9b06ez7L/X3j8HjkeK/2vFo1pFFEAUBEAUBEAUBEAQARBQARBQARBQARBQARBQBEFABEFABEFABEFABEFAAQUQAQUQAQUQAQUQBARAFARAFARAFARAFARAEAEQUAEQUAEQUAEQUAEQUARPSicGQ4Dty7OyL1dj7j7GG+Dg+kv7uze/jXzl5EedvQ6Wrr91+sGqn3y/3OHubrjdGIHPd3zx+qhtMXUQAQUQBARAFARAFARAFARAFARAEAEQUAEQUAEQUAEQUAEQUARBQARBQARBQARBQAEFEAEFEAEFEAEFEAEFEAQEQBQEQBQEQBQEQBQEQBABEFABEFABGFxdc5EnHz0+l3/Ut5Pm/XqTyf97qXfddARGk67eMRW/en36bDhX3ev/qugYgCgIgCgIgCgIgCgIgCACIKACIKACIKACIKACIKAIgoAIgoAIgoAIgoACCiACCiACCiACCiACCiAICIAoCIAoCIAoCIAoCIAgAiCgAiCgAiCgAiCgAi6giaV1//1MkdDw5G6n374ZE8H/jMVMSBQVvs9eX5+x5+bSpyfJ93PT7iMUFESzQ0fH7tE0+NNVJvz/PjeT7wuZmI10/bYm94Isufd2DofOT4Pj+7d7zhNUFEAUBEAUBEAUBEAUBEAQARBQARBQARBQARBQBEFABEFABEFABEFABEFAAQUQAQUQAQUQAQUQAQUQBARAFARAFARAFARJteo+YUABDRdxbQ5U4CABGdu6X13l+39FJHAYCIzvHHaL0P19vgKAAQ0bmZrrep3s1+jQIgonNQVdVM/c+b9W6pt96JACCic9Nf77313ufX6Nz8/cjUyXu+MBjJ97WRuOfJsMXeI1OR4+/7nUdHXC4uOv8EvhTsfOD4E1sAAAAASUVORK5CYII=;" vertex="1" parent="1">
          <mxGeometry x="110" y="66.77" width="200" height="206.45" as="geometry" />
        </mxCell>
        <mxCell id="q76zrVWfhr_DB77kWTOP-1" value="" style="shape=image;verticalLabelPosition=bottom;labelBackgroundColor=default;verticalAlign=top;aspect=fixed;imageAspect=0;image=data:image/png,iVBORw0KGgoAAAANSUhEUgAAAd8AAAHfCAYAAAARANJYAAAACXBIWXMAABJ0AAASdAHeZh94AAAE7mlUWHRYTUw6Y29tLmFkb2JlLnhtcAAAAAAAPD94cGFja2V0IGJlZ2luPSLvu78iIGlkPSJXNU0wTXBDZWhpSHpyZVN6TlRjemtjOWQiPz4gPHg6eG1wbWV0YSB4bWxuczp4PSJhZG9iZTpuczptZXRhLyIgeDp4bXB0az0iQWRvYmUgWE1QIENvcmUgOS4xLWMwMDIgNzkuYTFjZDEyZiwgMjAyNC8xMS8xMS0xOTowODo0NiAgICAgICAgIj4gPHJkZjpSREYgeG1sbnM6cmRmPSJodHRwOi8vd3d3LnczLm9yZy8xOTk5LzAyLzIyLXJkZi1zeW50YXgtbnMjIj4gPHJkZjpEZXNjcmlwdGlvbiByZGY6YWJvdXQ9IiIgeG1sbnM6eG1wPSJodHRwOi8vbnMuYWRvYmUuY29tL3hhcC8xLjAvIiB4bWxuczpkYz0iaHR0cDovL3B1cmwub3JnL2RjL2VsZW1lbnRzLzEuMS8iIHhtbG5zOnBob3Rvc2hvcD0iaHR0cDovL25zLmFkb2JlLmNvbS9waG90b3Nob3AvMS4wLyIgeG1sbnM6eG1wTU09Imh0dHA6Ly9ucy5hZG9iZS5jb20veGFwLzEuMC9tbS8iIHhtbG5zOnN0RXZ0PSJodHRwOi8vbnMuYWRvYmUuY29tL3hhcC8xLjAvc1R5cGUvUmVzb3VyY2VFdmVudCMiIHhtcDpDcmVhdG9yVG9vbD0iQWRvYmUgUGhvdG9zaG9wIDI2LjIgKFdpbmRvd3MpIiB4bXA6Q3JlYXRlRGF0ZT0iMjAyNC0xMi0xOVQxNjoyODo0OC0wNzowMCIgeG1wOk1vZGlmeURhdGU9IjIwMjQtMTItMTlUMTY6NDM6NTAtMDc6MDAiIHhtcDpNZXRhZGF0YURhdGU9IjIwMjQtMTItMTlUMTY6NDM6NTAtMDc6MDAiIGRjOmZvcm1hdD0iaW1hZ2UvcG5nIiBwaG90b3Nob3A6Q29sb3JNb2RlPSIzIiB4bXBNTTpJbnN0YW5jZUlEPSJ4bXAuaWlkOmRjMWU1MDEzLTlmMGMtMWE0NS1hZTVmLTI3N2ViMDYwYzlkNyIgeG1wTU06RG9jdW1lbnRJRD0ieG1wLmRpZDpkYzFlNTAxMy05ZjBjLTFhNDUtYWU1Zi0yNzdlYjA2MGM5ZDciIHhtcE1NOk9yaWdpbmFsRG9jdW1lbnRJRD0ieG1wLmRpZDpkYzFlNTAxMy05ZjBjLTFhNDUtYWU1Zi0yNzdlYjA2MGM5ZDciPiA8eG1wTU06SGlzdG9yeT4gPHJkZjpTZXE+IDxyZGY6bGkgc3RFdnQ6YWN0aW9uPSJjcmVhdGVkIiBzdEV2dDppbnN0YW5jZUlEPSJ4bXAuaWlkOmRjMWU1MDEzLTlmMGMtMWE0NS1hZTVmLTI3N2ViMDYwYzlkNyIgc3RFdnQ6d2hlbj0iMjAyNC0xMi0xOVQxNjoyODo0OC0wNzowMCIgc3RFdnQ6c29mdHdhcmVBZ2VudD0iQWRvYmUgUGhvdG9zaG9wIDI2LjIgKFdpbmRvd3MpIi8+IDwvcmRmOlNlcT4gPC94bXBNTTpIaXN0b3J5PiA8L3JkZjpEZXNjcmlwdGlvbj4gPC9yZGY6UkRGPiA8L3g6eG1wbWV0YT4gPD94cGFja2V0IGVuZD0iciI/PlaNYNAAAA1XSURBVHja7dhZjN1lHcfh35lu01m7N4W2A+1Qxlam0papC4grtJGIKAajxEhEMUZU9EKsV+AN0ai4I0aMuAEqgbiwVEFs1C5T6EpnpqUtnULpYjvTzgra44nxTi80mfO+0P/zJN+mt//t/eRMTblcDjtD96V7jpY77ysXZcce+Fr5F+/uSL4vXvqqckRYlbdkRmOW5/vETVeXi/QdlX97b9n5Wf3VBACQlPgCgPgCgPgCAOILAOILAIgvAIgvACC+ACC+ACC+AID4AoD4AgDiCwDiCwCILwCILwCILwAgvgAgvgCA+AKA+AIA4gsA4gsA4gsAiC8AiC8AIL4AIL7ErfdeFT+9r5x8C0szclzuUP/J2P74n5Jv/bqN8ZMdvcn36N4j3vEEDg+NZnm+DzzVk+V93rdlW54b3VCKLOfV9yoTX8ZUbdwZbZUXOvVaSlkud3hgILr/ujH5nurcGg/2HEq+db1/844ncGzoxSzPd+3O/Vne596nu/Lc6PqILOfVPL98AQDxBQDxBQDEFwDEFwAQXwAQXwAQXwBAfAFAfAEA8QUA8QUAxBcAxBcAxBcAEF8AEF8AQHwBQHwBAPEFAPEFAPEFAMQXAMQXABBfABBfAEB8AUB8AUB8YczUNTXFBW95Y/K97pKOuPbV85LvPRecE8uXLrEq75L287M833ctW5TlfT73Ne0OE/GF/93kxoY4/7UdyfeaFUvjykVzku+yRXPj1W2tVuVd1LYgy/N9++JzsrzP8xa3OUzEFwAQXwAQXwBAfAFAfAEA8QUA8QUA8QUAxBcAxBcAEF8AEF8AQHwBQHwBQHwBAPEFAPEFAMQXAMQXABBfABBfABBfAEB8AUB8AQDxBQDxBQDEFwDEFwDEl7EydPLUum2PPRGpt6fzKTc/gRmDEddsLaffsfq45tIL06/1vCzX++Y9ZS9bAgPHT0SO82rflu3iy9gaGRho7Vm/KVLvwM6n3fwEpg2XY3VXhh2fHKs7FqdfS0uW6115QHzT/Fg4GTnOq4O7usUXABBfABBfAEB8AUB8AQDxBQDxBQDxBQDEFwDEFwAQXwAQXwBAfAFAfAFAfAEA8QUA8QUAxBcAxBcAEF8AEF8AEF8AQHwBQHwBAPEFAPEFAMQXAMQXAMSX6qlratrT/tY3ReqddV5rbPvDHwuzQ3/aFu3bG5Nv4TN1XvIEGgbHZXm+s54cLdR3dGT/gchxXp17Ybv4MrZqG+ovWbRyRaTerJb50bOhszA7urknFu2uS755B2u95AlMHh6X5flOe/rFQn1Hx59/IXKcV3PbFokvACC+ACC+AID4AoD4AgDiCwDiCwDiCwCILwCILwAgvgAgvgCA+AKA+AKA+AIA4gsA4gsAiC8AiC8AIL4AIL4AIL4AgPgCgPgCAOILAOILAIgvAIgvAIhvEfR+/Dv3f7bjinLqfb3zoRk5rreuuSmWvu1NhVnr6raI9+8szi7dEHH47vSbcH+h7nPDe/sL9R0tWLY0y/ncffxQ5Dif71z10bL4VtkLg31XfXXTbyP1fr7rL1mut7ahPs7rWFGYzXv9ORGr9xZny3dEHP9N+o1/vFD3ue5tA4X6jua2LcpyXj3bfyxynM/392z0yxcA/NkZABBfABBfAEB8AUB8AQDxBQDxBQDxBQDEFwDEFwAQXwAQXwBAfAFAfAFAfAEA8QUA8QUAxBcAxBcAEF8AEF8AEF8AQHwBQHwBAPEFAPEFAMQXAIoZ3941PyzfdMvNyffVSd1ZbvJQf39sXft48u3euNkbnsDeIxE3/ST9vrk2z/U+czjP9X5rrXcthVPHT2Q5r/Y+uSXL9XbVnIwcPcoS38Olkbh9Uk/y3TPxQJaHOzI4FLs3bU6+3l1dTpIEnu+LuP2R9PvlhjzXe/BEnuv91SbvWgrDJ09mOa+e69md5XqfrRnM0iN/dgaAxMQXAMQXAMQXABBfABBfAEB8AUB8AQDxBQDxBQDxBQDEFwDEFwAQXwAQXwBAfAFAfAFAfAEA8QUA8QUAxBcAxBcAEF8AEF8AEF8AQHwBQHwBAPEFgJd7fD91y+fKn77l5qT7yqTuPFc7pS7iivb0u7jVm3YGWzAz4vZr0+/Gy/Jcb+vsPNf7ibd7185oMxrznM+vXZAnvt+YuDu+Pqkn6e6ZeCDPw22YFPGGhenXfrYP6wx21tSIT12efld35LneszNd73su8q6d0aZMznM+L56TJ76eOACILwCILwAgvgAgvgCA+AKA+AIA4gsA4gsA4gsAiC8AiC8AIL4AIL4AgPgCgPgCgPgCAOILAOILAIgvAIgvACC+ACC+ACC+AID4AoD4AgDiCwDiCwCIb1pHJ46Pu+Y3J999tadjy6OPJd/ujZvz3OiJsyJmX2c2tpu6KsvrfOr4iSzf77odO7KcV4/MahBfxlbfhJp4aHZD8j028XTs6Xwy+Q7u6s5zo8dPjZi22mxs19iR5XUePnkqy/e7bf/eLOfVpqm14gsAiC8AiC8AIL4AIL4AgPgCgPgCgPgCAOILAOILAIgvAIgvACC+ACC+ACC+AID4AoD4AgDiCwDiCwCILwCILwCILwAgvgAgvgCA+AKA+AIA4gsA4gsA4lsE9S9GrDxYTr4lR8pZrvfopPHxg5YpyXfX5Igf/35TYfbddZ1xY9dmq/LWbO0s1Ht199PPZPl+H5rdkOW8ah7Jcz63HSuLb7VN/nv860an3jl9eR5u34SaeHhWffI9MjHiD0/1FGa/3t4d3+rtsSrvh3t7CvVerT1wKMv3u2lKbZ4fRy+Vs5zP8/r98gUAf3YGAMQXAMQXABBfABBfAEB8AUB8AUB8AQDxBQDxBQDEFwDEFwAQXwAQXwAQXwBAfAFAfAEA8QUA8QUAxBcAxBcAxBcAEF8AEF8AQHwBQHwBAPEFAPFNamBixIa5peTbP6UUKw+Wk2/JkbI3HPi/NI9GlvNqzqk853PXDPGtupHxUbnRpeQ73FCKtmPl5GvpE1/g/1P3YjnLeTVtOM/53NtcEl8AKALxBQDxBQDxBQDEFwDEFwAQXwAQXwBAfAFAfAFAfAEA8QUA8QUAxBcAxBcAEF8AEF8AEF8AQHwBQHwBAPEFAPEFAMQXAMQXAMQXABBfABBfAEB8AUB8GRgcivWbtyXfzr9ui3hwa/qt2+OhwytU/6mBLOdV15+35jmvMk18ExgZGY3uPfuS79mufRHr96bfjuc9dHiFGhoaznJe9e7KdF5lmvgCQGLiCwDiCwDiCwCILwCILwAgvgAgvgCA+AKA+AKA+AIA4gsA4gsAiC8AiC8AIL4AIL4AIL4AgPgCgPgCAOILAOILAIgvAIgvAIgvACC+ACC+AID4AoD4/hd9QxEPbCnOnugp1Es1MDgY6zu3Jt++rq644B/9yff64f74yP4+q/KueaE/y/M9f1wpZk5rT77W+gvinUPpd139xfHdy69Pvk8uXyW+VTc4GrFhX3G28/lCvVTDI6PR/cz+5Dt88LloOT2UfG2jQ3HZ0UGr8i4+MZjl+Z5dimhubEm+OZNa4qLR+cn31tq2+NjD3y+l3jsWLhNfAEB8AUB8AQDxBQDxBQDEFwDEFwDEFwAQXwAQXwBAfAFAfAEA8QUA8QUA8QUAxBcAxBcAEF8AEF8AQHwBQHwBQHwBAPEFAPEFAMQXAMQXABBfABBfAChufO8YXh53DK1Ius+PLHbnGXNDpfGxfVyznaHrqj0rXph5SfIdn9JeqO/oWJyO333u7nLqDUyfFXdcfn1hVnPDrV8o3XDrmqR790tzlYIxNxo18WxNnZ2he27CtOhrflXyDdTPL9R3dCrK8WS8lHwjjc1xw8PfLxVl/uwMAKn/7OwWAID4AoD4AgDiCwDiCwCILwCILwAgvgAgvgAgvgCA+AKA+AIA4gsA4gsAiC8AiC8AiC8AIL4AIL4AgPgCgPgCAOILAOILAOILAIgvAIgvACC+ACC+/6GlaeaH7lz10bDq7kurro8rL/9gYfaWN1wds6YvTb6pTa1OEuDlH9+Z37j+Rx956Hslq+7ev/TNL61Y+sYoypac3xFNDfOTr75utpMEePnHFwDEFwAQXwAQXwBAfAFAfAEA8QUA8QUA8QUAxBcAxBcAEF8AEF8AQHwBQHwBAPEFAPEFAPEFAMQXAMQXABBfABBfAEB8AUB8AUB8AQDxBQDxBQDEFwDEl/SmRM2Kd5QmhVV375owLa6b3lGYXTl9RcyavjT5pjQt9FEnMKOShRzf0crSBPHlzFB/2/u2XXjbtSWr7lZ8+cOlS7+9pjBb1rggmhrmJ1/95Nk+6gQaoxQ5vqOFt32gJL4AgPgCgPgCAOILAOILAIgvAIgvAIgvACC+ACC+AID4AoD4AgDiCwDiCwDiCwCILwCILwAgvgAgvgCA+AKA+AKA+AIA4gsA4kuV3Xxv6V8DQHxJEt5xlX+nVtZY+X9tZZ4PgPhSZacra6vsxso+WNmySoCnVTberQEQX6rhtmvKlX8PVTansjWV/ayyuyv7TCXAyyub7CYBiC9j77nKtlQ2UllrZav+HeLvVHZTJcAL3SKAV7Z/ArcBwi4A54sSAAAAAElFTkSuQmCC;" vertex="1" parent="1">
          <mxGeometry x="110" y="530" width="200" height="200" as="geometry" />
        </mxCell>
        <mxCell id="q76zrVWfhr_DB77kWTOP-2" value="" style="shape=image;verticalLabelPosition=bottom;labelBackgroundColor=default;verticalAlign=top;aspect=fixed;imageAspect=0;image=data:image/png,iVBORw0KGgoAAAANSUhEUgAAAeAAAAHgCAYAAAB91L6VAAAACXBIWXMAABJ0AAASdAHeZh94AAAE7mlUWHRYTUw6Y29tLmFkb2JlLnhtcAAAAAAAPD94cGFja2V0IGJlZ2luPSLvu78iIGlkPSJXNU0wTXBDZWhpSHpyZVN6TlRjemtjOWQiPz4gPHg6eG1wbWV0YSB4bWxuczp4PSJhZG9iZTpuczptZXRhLyIgeDp4bXB0az0iQWRvYmUgWE1QIENvcmUgOS4xLWMwMDIgNzkuYTFjZDEyZiwgMjAyNC8xMS8xMS0xOTowODo0NiAgICAgICAgIj4gPHJkZjpSREYgeG1sbnM6cmRmPSJodHRwOi8vd3d3LnczLm9yZy8xOTk5LzAyLzIyLXJkZi1zeW50YXgtbnMjIj4gPHJkZjpEZXNjcmlwdGlvbiByZGY6YWJvdXQ9IiIgeG1sbnM6eG1wPSJodHRwOi8vbnMuYWRvYmUuY29tL3hhcC8xLjAvIiB4bWxuczpkYz0iaHR0cDovL3B1cmwub3JnL2RjL2VsZW1lbnRzLzEuMS8iIHhtbG5zOnBob3Rvc2hvcD0iaHR0cDovL25zLmFkb2JlLmNvbS9waG90b3Nob3AvMS4wLyIgeG1sbnM6eG1wTU09Imh0dHA6Ly9ucy5hZG9iZS5jb20veGFwLzEuMC9tbS8iIHhtbG5zOnN0RXZ0PSJodHRwOi8vbnMuYWRvYmUuY29tL3hhcC8xLjAvc1R5cGUvUmVzb3VyY2VFdmVudCMiIHhtcDpDcmVhdG9yVG9vbD0iQWRvYmUgUGhvdG9zaG9wIDI2LjIgKFdpbmRvd3MpIiB4bXA6Q3JlYXRlRGF0ZT0iMjAyNC0xMi0xOVQxNjoyODowNy0wNzowMCIgeG1wOk1vZGlmeURhdGU9IjIwMjQtMTItMTlUMTY6MzY6MzctMDc6MDAiIHhtcDpNZXRhZGF0YURhdGU9IjIwMjQtMTItMTlUMTY6MzY6MzctMDc6MDAiIGRjOmZvcm1hdD0iaW1hZ2UvcG5nIiBwaG90b3Nob3A6Q29sb3JNb2RlPSIzIiB4bXBNTTpJbnN0YW5jZUlEPSJ4bXAuaWlkOjYyMGFlN2M0LTE2MjUtOGY0NC1iMWFhLTkxY2Y2ZWExNWQ4MyIgeG1wTU06RG9jdW1lbnRJRD0ieG1wLmRpZDo2MjBhZTdjNC0xNjI1LThmNDQtYjFhYS05MWNmNmVhMTVkODMiIHhtcE1NOk9yaWdpbmFsRG9jdW1lbnRJRD0ieG1wLmRpZDo2MjBhZTdjNC0xNjI1LThmNDQtYjFhYS05MWNmNmVhMTVkODMiPiA8eG1wTU06SGlzdG9yeT4gPHJkZjpTZXE+IDxyZGY6bGkgc3RFdnQ6YWN0aW9uPSJjcmVhdGVkIiBzdEV2dDppbnN0YW5jZUlEPSJ4bXAuaWlkOjYyMGFlN2M0LTE2MjUtOGY0NC1iMWFhLTkxY2Y2ZWExNWQ4MyIgc3RFdnQ6d2hlbj0iMjAyNC0xMi0xOVQxNjoyODowNy0wNzowMCIgc3RFdnQ6c29mdHdhcmVBZ2VudD0iQWRvYmUgUGhvdG9zaG9wIDI2LjIgKFdpbmRvd3MpIi8+IDwvcmRmOlNlcT4gPC94bXBNTTpIaXN0b3J5PiA8L3JkZjpEZXNjcmlwdGlvbj4gPC9yZGY6UkRGPiA8L3g6eG1wbWV0YT4gPD94cGFja2V0IGVuZD0iciI/PknXGmgAAAwrSURBVHja7djfb9X1Hcfx9+mpKKU/oC3QqiAURGgNbCKiWbiYipqAS9Rk2SLxTjezy2UXu9qWLNvVbma2mC26LNlisoD75aJzKmxGBTZbFaTIjxbEtgq11P7i5+nZ3Xa3ZI5+PvN8H4/k9Qd8v5/v9/vMOXXVajWsNrdkydK/PPa1x6tm9um3ffuXqr4nNherC2pW++LFd+/Y8UiY2aff3Vvv8TFhTggwAAgwAAgwACDAACDAAIAAA4AAAwACDAACDAAIMAAIMAAIMAAgwAAgwACAAAOAAAMAAgwAAgwACDAACDAACDAAIMAAIMAAgAADgAADAAIMAAIMAAgwAAgwAAgwACDAACDAAIAAA4AAAwACDAACDAAIMAAIMAAIMAAgwAAgwACAAAOAAAMAAgwAAgwACDAACDAACDAAIMAAIMAAgAADgAADAAIMAAIMAAgwAAgwAAgwACDAACDA8F+YmpyIv7++O/n6D/S6+QlMToxnOd/DB/vcfAQY/pOZ6cl4p3df8h0/csjNT2B6ciLL+Q4c7XfzEWAAQIABQIABAAEGAAEGAAQYAAQYAAQYABBgABBgAECAAUCAAQABBgABBgAEGAAEGAAEGAAQYAAQYABAgAFAgAEAAQYAAQYABBgABBgABBgAEGAAEGAAQIA/O+rnLWhf1LG+mnpNrasKdZ+vHhmPlT99JfmafvlK7H9td/INvvhKluvt+H1v0d7fyPP+dlV9PQWY/1G5/potTe1rIvUaWpYVK8CjU3H9M3uTr+F3e+NA377kG3ptf5brXfLSoWK9v1c1RI73d37L9T6eAgwACDAACDAAIMAAIMAAgAADgAADgAADAAIMAAIMAAgwAAgwACDAACDAAIAAA4AAA4AAuwUAIMAAIMAAgAADgAADAAIMAAIMAAgwAAgwACDAACDAACDAAEBtBbh+XkP7os4N1aKso3X1s5sqEanXPVush/l8Z0sMfOOu5Bt56NY813vtwizXO/zAxkI9V83V9O/upkrEzeXGKNJ3MteaWruqhQpwuf6aLU1tN0ZR1t6yLG6uRPJ1FSzAF9ubYugrm5PvzF3dWa73wuI81zt657pCPVcLqpHl/V1d3xBF+k7m2vzm6/wFDQD+ggYABBgABBgAEGAAEGAAQIABQIABAAEGAAEGAAEGAAQYAAQYABBgABBgAECAAUCAAQABBgABBgABBgAEGAAEGAAQYAAQYABAgAFAgAEAAQYAAQaAYgZ4UeeGaup1tN747G2ViKKsu5LncEc/nohf7dyTfG++vS+++tDp5Nu+9Uh0LX0m+davfj7L9W67O8/1bljzQpbr7Vk3mOV5fvlvb2V5f5urxflG5lxPfVPk6GBja1e1rqntxki9tpZl0VOJwqxrNk+Axz+Zjudf+kfyHTpyMO69cyz5tmx+P65r/XPyrVn+WqbrPZnpel/Pcr2rVg5neZ73vXkky/u7oBqF+k7m2qr6hsjRwYbma/0FDQBZ/oJ2CwBAgAFAgAEAAQYAAQYABBgABBgAEGAAEGAAQIABQIABQIABAAEGAAEGAAQYAAQYABBgABBgAECAAUCAAUCAAQABBgABBgAEGAAEGAAQYAAQYADgXwG+7XLE5kra9VTc+BQaI/3Zbq5ENA/Ni+890Zl8T+9sc+gJnMx0vr/d1ZbleV4768xrWUs1z3fypkpEXc9sRHcl7bo80EnMr6Y/2+5KxIIz9fHUzrbke253i0NPYOTMVVnOd8+e5izP8wrfq9r+oZLpO7l81l/QAJCFAAOAAAOAAAMAAgwAAgwACDAACDAAIMAAIMAAgAADgAADgAADAAIMAAIMAAgwAAgwACDAACDAAIAAA4AAA4AAAwACDAACDAAIMAAIMAAgwAAgwACAADN3miJicyX9mobmxXef6LQ53q5dbVnOd91ssd6jiVLEvnL6HVYFAeaza341oruSfg2n6+PpnW02x/vrnuYs57uiYAGeLkUcKqffSVUQYAAQYABAgAFAgAEAAQYAAQYABBgABBgABBgAEGAAEGAAQIABQIABAAEGAAEGAAQYAAQYAAQYABBgABBgAECAAUCAAQABBgABBgAEGAAEGAAE2C0AAAEGAAHmypgqRewrp9+75WLd58aI2FyxuV73bJ7zncj0HuXaUCnP+a6d9c0W4BpyLiIOldNvsGCn21CN6K7YXO+GTB/omUzvUa6Nlop1vgIMAAgwAAgwACDAACDAAIAAA4AAAwACDAACDAACDAAIMAAIMAAgwAAgwACAAAOAAAMAAgwAAgwAAgwACDAACDAAIMAAIMAAgAADgAADAAIMAAIMAAIMACQO8N5yROodKLvx1I7JUvp3aG854t1M79FEpuv9oC7i9kpx1j3r3ar5APeXI1LvhN/d1JCZSP8O9ZcjTtYV63rPlCLWVYqz5QJc+wF2CwBAgAFAgAEAAQYAAQYABBgABBgAEGAAEGAAQIABQIABQIABAAEGAAEGAAQYAAQYABBgABBgAECAAUCAAUCAAQABBgABBgAEGAAEGAAQYAAQYABAgAFAgGtbY0TcXkm/FbMRe8s213u/Ls/5Ls90vqcyXW/PrG8JV954Kc97dLgswEnMr0asq6Tf0tmI/rLN9c7U5TnfxZnOd7SU53qXCzBzYLqU5z06VSfAAOAvaAAQYABAgAFAgAEAAQYAAQYABBgABBgAEGAAEGAAEGAAQIABQIABAAEGAAEGAAQYAAQYABBgABBgABBgAECAAUCAAQABBgABBgAEGAAEGAAQYAAoYIBbll6K7d8aLsw27BiNN8qRfOOt0/H9e/oKs29uOhp3XI7k66kU66PRuuxiod7fXLv9yx8X6rkaL0WW7+Q7lybi7Ehf8k2NDYxmCfCCRZdj04NjhdnKL34Sh8uRfNNNF+KRWwYKswfWDMXa2Ui+G2aLFeDm9kuFen9z7aYtE4V6rqZLkeU7eaJyLiY/Pl5KvZmJ4cX+ggaAovwFDQACDAAIMAAIMAAgwAAgwACAAAOAAAMAAgwAAgwACDAACDAACDAAIMAAIMAAgAADgAADAAIMAAIMAAgwAAgwAAgwACDAACDAAIAAA4AAAwACDAACXFjLFs7ED+7tS77Ht5yN6Hi0MGtdfWfcv60v+b5wxxEPOVdce9tUluc51zZu6Iuzw+k3NXbsgADX8ovUcCF2fH4g+e7rno5YtLUwa+xYH7duHEi+tTcNe8i54pqbz2V5nnNt1YqBmBw7Xkq9mYmR9QIMAP6CBgAEGAAEGAAQYAAQYABAgAFAgAEAAQYAAQYAAQYABBgABBgAEGAAEGAAQIABQIABAAEGAAEGAAEGAAQYAAQYABBgABBgAECAAUCAAQABBgABBoBCBvjscG+kXv/Bgfj2j65Nvp/8fGHEwY+Sb/rgVPS+tSL99jdE7/N/Kcze27s/y0vU2jod92/rTb6Ht/XGD+9Lv0dvfjfLe1S4nTib5XnuH474+i/S78cvFjDAk2MDpdT74NRHD/76D62Rei+8vCDi1HjyXXj/QgwMLkm/Y1fHQN/bhdnw0eNZXqLGxvNx68bB5Ntyy2A8/Ln027rsVJb3qHA7PZXleR46G/Hky9VS6j3XVy35CxoAEGAAEGAAQIABQIABAAEGAAEGAAQYAAQYAAQYABBgABBgAECAAUCAAQABBgABBgAEGAAEGAAEGAAQYAAQYABAgAFAgAEAAQYAAQYABBgABBgABBgAqPEAX7448+rYcG+k3sjJwXizb2XyHX6v05OWwPTU1VnO90+vdsZjT4XN8b7zm2uynG/RdvRYh49JLQe4cvn86NTYQCn1xkdPXxo8sThSb3hkkSctgfMXrooc59v33sL42e5qyeZ2u97Ic75F24cfLvQx8Rc0AAgwACDAACDAAIAAA4AAAwACDAACDAACDAAIMAAIMAAgwAAgwACAAAOAAAMAAgwAAgwAAgwACDAACDAAIMAAIMAAgAADgAADAAIMAAIMAAIMAAgwAAgwwP+H4anzG57sHQyb2/3x2IiHTYAB/m3s3MV3Xho8XbK5Xe/IeMnTJsAAIMAAgAADgAADAAIMAAIMAAgwAAgwAAgwACDAACDAAIAAA4AAAwACDAACDAAIMAAIMAAIMAAgwAAgwACAAAOAAAMAAgwAAgwACDAACDAACDAAIMAAUPv+CQZJFXvTyy9YAAAAAElFTkSuQmCC;" vertex="1" parent="1">
          <mxGeometry x="530" y="310" width="200" height="200" as="geometry" />
        </mxCell>
        <mxCell id="q76zrVWfhr_DB77kWTOP-5" value="&lt;font style=&quot;font-size: 28px;&quot; color=&quot;#ffec27&quot;&gt;&lt;b&gt;Carrier&lt;/b&gt;&lt;/font&gt;&lt;div&gt;Slow with decent health but can &lt;b&gt;fly&lt;/b&gt;&amp;nbsp;&lt;b&gt;over towers&lt;/b&gt;. Deploys &lt;i&gt;fast&lt;/i&gt; drones to distract your towers and attack your base! Does not like bombs...&lt;/div&gt;" style="rounded=1;whiteSpace=wrap;html=1;strokeWidth=4;fillColor=#1D2B53;strokeColor=#FFEC27;spacingLeft=5;spacingRight=5;" vertex="1" parent="1">
          <mxGeometry x="370" y="120" width="380" height="100" as="geometry" />
        </mxCell>
        <mxCell id="q76zrVWfhr_DB77kWTOP-8" value="&lt;font color=&quot;#7e2553&quot; style=&quot;font-size: 28px;&quot;&gt;&lt;b&gt;BigBoy&lt;/b&gt;&lt;/font&gt;&lt;div&gt;Slow walker with &lt;b&gt;&lt;i&gt;massive health&lt;/i&gt;&lt;/b&gt;. Surprisingly &lt;i&gt;good at jumping&lt;/i&gt; for being so top heavy...&lt;/div&gt;" style="rounded=1;whiteSpace=wrap;html=1;strokeWidth=4;fillColor=#1D2B53;strokeColor=#7E2553;spacingLeft=5;spacingRight=5;" vertex="1" parent="1">
          <mxGeometry x="90" y="360" width="380" height="100" as="geometry" />
        </mxCell>
        <mxCell id="q76zrVWfhr_DB77kWTOP-11" value="&lt;font color=&quot;#008751&quot; style=&quot;font-size: 28px;&quot;&gt;&lt;b style=&quot;&quot;&gt;Squeal Team 6&lt;/b&gt;&lt;/font&gt;&lt;div&gt;These elite task force members are &lt;i&gt;not only&lt;/i&gt; &lt;b&gt;strong&lt;/b&gt; and &lt;b&gt;pretty quick&lt;/b&gt;, some say they will &lt;b&gt;vanish&lt;/b&gt; right before your eyes...&lt;/div&gt;" style="rounded=1;whiteSpace=wrap;html=1;strokeWidth=4;fillColor=#1D2B53;strokeColor=#008751;spacingLeft=5;spacingRight=5;" vertex="1" parent="1">
          <mxGeometry x="370" y="580" width="380" height="100" as="geometry" />
        </mxCell>
      </root>
    </mxGraphModel>
  </diagram>
</mxfile>
